# xmcd
#
# Track frame offsets:
#	150
#	5890
#	16185
#	21750
#	27460
#	34167
#	43247
#	50872
#	59470
#	67005
#	72277
#	73167
#	79222
#	84605
#	94220
#	102082
#	108705
#	119247
#	125085
#	131375
#	136702
#	144540
#	151202
#	160067
#	167427
#	171805
#
# Disc length: 2323 seconds
#
# Revision: 1
# Processed by: cddbd v1.5.1PL0 Copyright (c) Steve Scherf et al.
# Submitted via: CDex 1.50Beta5
#
DISCID=7b09111a
DTITLE=TVサントラ - 大岡越前オリジナルサウンドトラック 叙情編
DYEAR=2002
DGENRE=Soundtrack
TTITLE0=「大岡越前」オープニングテーマ
TTITLE1=「大岡越前」テーマ Vn.&Gt.ver.
TTITLE2=「大岡越前」明るくはずんで
TTITLE3=「大岡越前」ほのかに暖かく
TTITLE4=「大岡越前」サスペンスVII
TTITLE5=「大岡越前」尾行II
TTITLE6=「大岡越前」アウトロー・ノスタルジー
TTITLE7=「大岡越前」テーマ Gt.ver.
TTITLE8=「大岡越前」しなやかに…
TTITLE9=「大岡越前」想い出
TTITLE10=「大岡越前」サスペンスVIII
TTITLE11=「大岡越前」サスペンスIX
TTITLE12=「大岡越前」深刻重圧
TTITLE13=「大岡越前」テーマ Vo.ver.I
TTITLE14=「大岡越前」爽やかに明るく
TTITLE15=「大岡越前」美しく爽やかに
TTITLE16=「大岡越前」テーマ Vc.&Per.ver.
TTITLE17=「大岡越前」苦悩III
TTITLE18=「大岡越前」悲痛
TTITLE19=「大岡越前」やさしく、愛
TTITLE20=「大岡越前」泣きべそ
TTITLE21=「大岡越前」痛む心
TTITLE22=「大岡越前」テーマ Horg&Harmonica ver.
TTITLE23=「大岡越前」テーマ Ob.&Vn.ver.
TTITLE24=「大岡越前」テーマ Vo.ver.II
TTITLE25=「大岡越前」後タイトルテーマ
EXTD=
EXTT0=
EXTT1=
EXTT2=
EXTT3=
EXTT4=
EXTT5=
EXTT6=
EXTT7=
EXTT8=
EXTT9=
EXTT10=
EXTT11=
EXTT12=
EXTT13=
EXTT14=
EXTT15=
EXTT16=
EXTT17=
EXTT18=
EXTT19=
EXTT20=
EXTT21=
EXTT22=
EXTT23=
EXTT24=
EXTT25=
PLAYORDER=
